<?xml version="1.0" encoding="UTF-8"?>
<svg id="Layer_1" data-name="Layer 1" xmlns="http://www.w3.org/2000/svg" viewBox="0 0 500 500">
  <defs>
    <style>
      .cls-1 {
        fill: #1f95d2;
      }

      .cls-2 {
        fill: #fff;
      }

      .cls-3 {
        stroke-linecap: round;
      }

      .cls-3, .cls-4 {
        fill: none;
        stroke: #1f95d2;
        stroke-miterlimit: 10;
        stroke-width: 14px;
      }
    </style>
  </defs>
  <path class="cls-1" d="M128.14196,204.02542l48.36195-61.99255c.11754-.15067.20591-.32197.26057-.50508l15.33688-51.38343c.07087-.23744.19818-.4542.37105-.63174l54.62695-56.10336,1.70122,1.78034c.27288.28557.42516.66535.42516,1.06034v70.15545c0,.40706.1617.79744.44954,1.08527l2.50186,2.50186c.31929.31929.73898.51863,1.1882.56435l71.58196,7.28586c.18232.01856.35985.06962.52417.15076l3.89838,1.92512c.78975.39,1.50501.91546,2.11328,1.5525l28.29416,29.6324c.04069.04262.08381.08286.12913.12052l2.76179,2.29501c1.21314,1.0081,2.6692,1.68082,4.2232,1.95117l100.85253,17.54514c.39842.06931.75338.29307.98774.62264l1.18352,1.66432c.36463.51276.56055,1.12633.56055,1.75552v5.18064c0,.99349-.16396,1.98018-.48528,2.92027l-6.57027,19.2229c-.28577.83607-3.88124,11.19585-4.15189,11.84403l-19.19667,45.97475c-.29102.69697-.71184,1.3323-1.24006,1.87215l-2.32593,2.37716c-1.51654,1.54994-3.30122,2.81246-5.26766,3.72644l-4.57336,2.12565c-1.19818.5569-2.49519.86987-3.81549.92067l-95.07341,3.65852c-.38047.01464-.74192.17018-1.01413.43641l-24.43125,23.89429c-.39858.38982-.55443.96512-.40711,1.50282l1.74703,6.37666c.30038,1.09637,1.64684,1.49712,2.49785.74343l20.60899-18.25211c.95375-.84468,2.46194-.22673,2.54882,1.04431l.08213,1.20153c1.75702,25.70377,5.41108,51.24257,10.93233,76.40776l.21363.97368c.11214.51113-.04386,1.04417-.41388,1.41419l-62.25034,62.25034c-.96688.96688-2.62009.2821-2.62009-1.08527v-75.89127c0-.40774-.16224-.79872-.45092-1.08666l-78.36784-78.16776c-.28868-.28794-.45092-.67892-.45092-1.08666v-64.92099c0-.40706.1617-.79744.44954-1.08527l3.79405-2.77142c7.63752-5.57894,8.26854-16.7479,1.308-23.15159l-1.39574-1.28408c-5.74063-5.28138-14.57107-5.28138-20.3117,0l-1.39574,1.28408c-6.96053,6.40369-6.32952,17.57265,1.308,23.15159l3.79405,2.77142c.28783.28783.44954.67822.44954,1.08527v70.35481c0,.40869.163.80051.45288,1.0886l78.52877,78.0476c.28988.2881.45288.67991.45288,1.0886v94.90862c0,.65954-.42136,1.24533-1.04665,1.45511l-1.88452.63223c-.55217.18524-1.16161.042-1.57344-.36983l-21.27938-21.27938c-.28783-.28783-.44954-.67822-.44954-1.08527v-58.11863c0-.40706-.1617-.79744-.44954-1.08527l-79.64763-79.64763c-.28783-.28783-.44954-.67822-.44954-1.08527v-56.95294c0-.3598-.12641-.70817-.35715-.98425l-28.12273-33.6491c-.46373-.55486-.47726-1.35815-.03246-1.9283Z"/>
  <polygon class="cls-2" points="334 154 296 154 334 180 334 154"/>
  <path class="cls-2" d="M459.98709,214.22505l-20.67447-15.89012c-1.2532-.99613-.47047-1.47499,1.04331-.95417l22.28164,9.25412-2.65048,7.59017Z"/>
  <path class="cls-1" d="M295.29012,109.28048l3.1095-57.20184c.03476-.63948-.23882-1.25694-.73587-1.66079l-2.37363-1.92858-39.27129,42.08094c-.80989.86784-1.1925,2.05056-1.04436,3.22833l.80826,6.42564c.16441,1.30708,1.63277,3.52178,2.93047,3.74861l36.57692,5.30769Z"/>
  <polyline class="cls-1" points="130.68572 303.98377 130.68572 339.4563 225.43297 428.92883 225.96045 385.74202 130.68572 286.34641"/>
  <line class="cls-4" x1="139.92353" y1="306.12081" x2="140.1543" y2="241.8351"/>
  <line class="cls-4" x1="142.21474" y1="246.84609" x2="89.1543" y2="194.16477"/>
  <line class="cls-4" x1="91.22298" y1="199.14279" x2="91.22298" y2="136.55763"/>
  <line class="cls-4" x1="140.03891" y1="303.82136" x2="63.33387" y2="228.80587"/>
  <circle class="cls-4" cx="91.22298" cy="120.55763" r="16"/>
  <circle class="cls-4" cx="51.89721" cy="217.62111" r="16"/>
  <line class="cls-3" x1="281.81364" y1="457.64554" x2="385.55263" y2="353.90655"/>
  <circle class="cls-4" cx="395.82081" cy="341.63762" r="16"/>
  <circle class="cls-4" cx="376.1447" cy="431.26268" r="16"/>
  <line class="cls-4" x1="308.19652" y1="431.26267" x2="360.1447" y2="431.26268"/>
</svg>